<svg width="208" height="55" viewBox="0 0 208 55" fill="none" xmlns="http://www.w3.org/2000/svg">
<g filter="url(#filter0_d_3_197)">
<path d="M28.5362 40.1221C26.9271 40.1221 25.5944 40.1221 24.1089 40.1221C22.4996 39.8086 20.924 39.3973 19.3822 38.8883C17.9312 38.1958 16.5363 37.4189 15.1975 36.5575C13.9902 35.5443 12.857 34.4648 11.798 33.3191C10.9011 32.0618 10.0909 30.76 9.36734 29.4135C8.82518 28.0013 8.37618 26.5683 8.02036 25.1144C7.8527 23.6429 7.77851 22.1747 7.79777 20.7097C7.99965 19.2745 8.28927 17.8655 8.66662 16.4826C9.20956 15.1731 9.82911 13.91 10.5253 12.6933C11.36 11.587 12.2558 10.5436 13.2127 9.563C14.2734 8.72107 15.3763 7.95367 16.5214 7.26081C17.7305 6.72474 18.961 6.26955 20.2129 5.89525C21.4866 5.68493 22.7605 5.55633 24.0347 5.50946C25.2889 5.62282 26.523 5.81341 27.7373 6.08124C28.8929 6.49534 30.0106 6.97737 31.0904 7.52735C32.0787 8.2008 33.0144 8.92892 33.8976 9.71171C34.664 10.5883 35.3672 11.5033 36.0074 12.4568C36.5144 13.4697 36.9525 14.5033 37.3216 15.5574C37.5506 16.6344 37.7096 17.7137 37.7987 18.7954C37.7503 19.8638 37.6356 20.917 37.4546 21.955C37.1477 22.9465 36.7822 23.9073 36.3582 24.8373C35.8276 25.6924 35.2497 26.5041 34.6245 27.2725C33.918 27.944 33.1779 28.5631 32.4042 29.1298C31.5784 29.5856 30.7342 29.9839 29.8716 30.3248C28.9878 30.5489 28.1012 30.7146 27.2116 30.822C26.3314 30.815 25.4631 30.7527 24.6066 30.6352C23.7874 30.4131 22.9931 30.1424 22.2236 29.8232C21.5151 29.4158 20.8419 28.9693 20.2041 28.4838C19.645 27.9314 19.1287 27.3515 18.6551 26.7441C18.2715 26.0944 17.9346 25.4298 17.6441 24.7504C17.4481 24.0543 17.299 23.3562 17.1968 22.6561C17.1863 21.9643 17.2198 21.2825 17.2973 20.6107C17.4575 19.9698 17.6558 19.3493 17.8923 18.7492C18.1973 18.1986 18.5324 17.6766 18.8974 17.1831C19.313 16.7527 19.749 16.3562 20.2052 15.9937C20.6919 15.7023 21.1885 15.4472 21.695 15.2285C22.2111 15.0828 22.727 14.9731 23.2425 14.8992C23.7479 14.8947 24.2437 14.923 24.7299 14.984C25.1888 15.1056 25.6303 15.2546 26.0544 15.431C26.4377 15.6553 26.798 15.9 27.1352 16.1649C27.4226 16.4624 27.6838 16.7722 27.9186 17.0943C28.0996 17.4324 28.2535 17.7745 28.3803 18.1205C28.4542 18.4664 28.5026 18.8083 28.5256 19.1464C28.501 19.4696 28.4546 19.7822 28.3865 20.0841C28.2799 20.3593 28.157 20.6188 28.0176 20.8626C27.8516 21.0713 27.6755 21.2612 27.4894 21.4323C27.2899 21.5643 27.0872 21.6764 26.8811 21.7688C26.6751 21.8223 26.4723 21.8572 26.2728 21.8734C26.0855 21.855 25.907 21.8211 25.7374 21.7716C25.59 21.6951 25.4557 21.6077 25.3344 21.5094" stroke="url(#paint0_linear_3_197)" stroke-width="3" stroke-linecap="round"/>
<g filter="url(#filter1_b_3_197)">
<path d="M31.6685 43.5281C30.0594 43.5281 28.7267 43.5281 27.2411 43.5281C25.6319 43.2145 24.0563 42.8033 22.5145 42.2943C21.0635 41.6018 19.6686 40.8248 18.3298 39.9634C17.1225 38.9503 15.9893 37.8708 14.9302 36.7251C14.0334 35.4678 13.2232 34.1659 12.4996 32.8195C11.9575 31.4073 11.5085 29.9743 11.1526 28.5203C10.985 27.0489 10.9108 25.5806 10.9301 24.1156C11.1319 22.6805 11.4216 21.2714 11.7989 19.8886C12.3418 18.5791 12.9614 17.316 13.6576 16.0993C14.4923 14.993 15.3881 13.9496 16.345 12.969C17.4057 12.127 18.5086 11.3596 19.6537 10.6668C20.8627 10.1307 22.0933 9.67552 23.3452 9.30122C24.6189 9.0909 25.8928 8.9623 27.167 8.91543C28.4211 9.02879 29.6553 9.21938 30.8696 9.4872C32.0252 9.9013 33.1429 10.3833 34.2227 10.9333C35.211 11.6068 36.1467 12.3349 37.0299 13.1177C37.7962 13.9942 38.4995 14.9093 39.1397 15.8628C39.6467 16.8757 40.0847 17.9092 40.4539 18.9634C40.6829 20.0404 40.8419 21.1197 40.931 22.2013C40.8826 23.2697 40.7679 24.3229 40.5868 25.361C40.2799 26.3525 39.9145 27.3132 39.4905 28.2433C38.9599 29.0984 38.382 29.9101 37.7568 30.6784C37.0503 31.35 36.3101 31.9691 35.5365 32.5358C34.7106 32.9916 33.8664 33.3899 33.0039 33.7308C32.1201 33.9549 31.2334 34.1206 30.3439 34.228C29.4637 34.2209 28.5954 34.1586 27.7389 34.0411C26.9197 33.8191 26.1254 33.5484 25.3559 33.2292C24.6474 32.8217 23.9742 32.3753 23.3363 31.8898C22.7773 31.3373 22.261 30.7575 21.7873 30.1501C21.4038 29.5003 21.0668 28.8358 20.7764 28.1564C20.5804 27.4603 20.4313 26.7622 20.3291 26.0621C20.3186 25.3703 20.3521 24.6885 20.4295 24.0167C20.5898 23.3758 20.7881 22.7553 21.0246 22.1552C21.3296 21.6046 21.6646 21.0826 22.0297 20.589C22.4453 20.1587 22.8812 19.7622 23.3375 19.3997C23.8242 19.1082 24.3207 18.8531 24.8273 18.6344C25.3434 18.4888 25.8592 18.379 26.3748 18.3052C26.8802 18.3007 27.376 18.3289 27.8622 18.39C28.3211 18.5116 28.7625 18.6606 29.1867 18.837C29.57 19.0613 29.9302 19.3059 30.2675 19.5708C30.5549 19.8684 30.816 20.1782 31.0509 20.5002C31.2319 20.8384 31.3858 21.1805 31.5126 21.5265C31.5865 21.8723 31.6349 22.2143 31.6579 22.5523C31.6332 22.8755 31.5869 23.1881 31.5188 23.4901C31.4122 23.7653 31.2893 24.0248 31.1499 24.2685C30.9839 24.4773 30.8078 24.6672 30.6217 24.8383C30.4222 24.9702 30.2195 25.0824 30.0134 25.1748C29.8074 25.2283 29.6046 25.2632 29.405 25.2794C29.2178 25.261 29.0393 25.227 28.8697 25.1775C28.7223 25.1011 28.588 25.0137 28.4667 24.9153" stroke="#CBCBCB" stroke-opacity="0.3" stroke-width="7" stroke-linecap="round"/>
</g>
</g>
<path d="M49.517 8.54545H54.0682L58.875 20.2727H59.0795L63.8864 8.54545H68.4375V26H64.858V14.6392H64.7131L60.196 25.9148H57.7585L53.2415 14.5966H53.0966V26H49.517V8.54545ZM77.3246 26.2557C76.0007 26.2557 74.8558 25.9744 73.8899 25.4119C72.9297 24.8437 72.1882 24.054 71.6655 23.0426C71.1428 22.0256 70.8814 20.8466 70.8814 19.5057C70.8814 18.1534 71.1428 16.9716 71.6655 15.9602C72.1882 14.9432 72.9297 14.1534 73.8899 13.5909C74.8558 13.0227 76.0007 12.7386 77.3246 12.7386C78.6484 12.7386 79.7905 13.0227 80.7507 13.5909C81.7166 14.1534 82.4609 14.9432 82.9837 15.9602C83.5064 16.9716 83.7678 18.1534 83.7678 19.5057C83.7678 20.8466 83.5064 22.0256 82.9837 23.0426C82.4609 24.054 81.7166 24.8437 80.7507 25.4119C79.7905 25.9744 78.6484 26.2557 77.3246 26.2557ZM77.3416 23.4432C77.9439 23.4432 78.4467 23.2727 78.8501 22.9318C79.2536 22.5852 79.5575 22.1136 79.7621 21.517C79.9723 20.9205 80.0774 20.2415 80.0774 19.4801C80.0774 18.7188 79.9723 18.0398 79.7621 17.4432C79.5575 16.8466 79.2536 16.375 78.8501 16.0284C78.4467 15.6818 77.9439 15.5085 77.3416 15.5085C76.7337 15.5085 76.2223 15.6818 75.8075 16.0284C75.3984 16.375 75.0888 16.8466 74.8786 17.4432C74.674 18.0398 74.5717 18.7188 74.5717 19.4801C74.5717 20.2415 74.674 20.9205 74.8786 21.517C75.0888 22.1136 75.3984 22.5852 75.8075 22.9318C76.2223 23.2727 76.7337 23.4432 77.3416 23.4432ZM92.0433 26.2557C90.7024 26.2557 89.549 25.9716 88.5831 25.4034C87.6229 24.8295 86.8842 24.0341 86.3672 23.017C85.8558 22 85.6001 20.8295 85.6001 19.5057C85.6001 18.1648 85.8587 16.9886 86.3757 15.9773C86.8984 14.9602 87.6399 14.1676 88.6001 13.5994C89.5604 13.0256 90.7024 12.7386 92.0263 12.7386C93.1683 12.7386 94.1683 12.946 95.0263 13.3608C95.8842 13.7756 96.5632 14.358 97.0632 15.108C97.5632 15.858 97.8388 16.7386 97.8899 17.75H94.4638C94.3672 17.0966 94.1115 16.571 93.6967 16.1733C93.2876 15.7699 92.7507 15.5682 92.0859 15.5682C91.5234 15.5682 91.032 15.7216 90.6115 16.0284C90.1967 16.3295 89.8729 16.7699 89.6399 17.3494C89.407 17.929 89.2905 18.6307 89.2905 19.4545C89.2905 20.2898 89.4041 21 89.6314 21.5852C89.8643 22.1705 90.1911 22.6165 90.6115 22.9233C91.032 23.2301 91.5234 23.3835 92.0859 23.3835C92.5007 23.3835 92.8729 23.2983 93.2024 23.1278C93.5376 22.9574 93.8132 22.7102 94.0291 22.3864C94.2507 22.0568 94.3956 21.6619 94.4638 21.2017H97.8899C97.8331 22.2017 97.5604 23.0824 97.0717 23.8438C96.5888 24.5994 95.9212 25.1903 95.0689 25.6165C94.2166 26.0426 93.2081 26.2557 92.0433 26.2557ZM100.214 26V12.9091H103.845V17.9886H104.868L108.43 12.9091H112.692L108.064 19.4034L112.743 26H108.43L105.2 21.3551H103.845V26H100.214ZM119.653 26.2557C118.329 26.2557 117.184 25.9744 116.218 25.4119C115.258 24.8437 114.516 24.054 113.994 23.0426C113.471 22.0256 113.21 20.8466 113.21 19.5057C113.21 18.1534 113.471 16.9716 113.994 15.9602C114.516 14.9432 115.258 14.1534 116.218 13.5909C117.184 13.0227 118.329 12.7386 119.653 12.7386C120.977 12.7386 122.119 13.0227 123.079 13.5909C124.045 14.1534 124.789 14.9432 125.312 15.9602C125.835 16.9716 126.096 18.1534 126.096 19.5057C126.096 20.8466 125.835 22.0256 125.312 23.0426C124.789 24.054 124.045 24.8437 123.079 25.4119C122.119 25.9744 120.977 26.2557 119.653 26.2557ZM119.67 23.4432C120.272 23.4432 120.775 23.2727 121.178 22.9318C121.582 22.5852 121.886 22.1136 122.09 21.517C122.3 20.9205 122.406 20.2415 122.406 19.4801C122.406 18.7188 122.3 18.0398 122.09 17.4432C121.886 16.8466 121.582 16.375 121.178 16.0284C120.775 15.6818 120.272 15.5085 119.67 15.5085C119.062 15.5085 118.55 15.6818 118.136 16.0284C117.727 16.375 117.417 16.8466 117.207 17.4432C117.002 18.0398 116.9 18.7188 116.9 19.4801C116.9 20.2415 117.002 20.9205 117.207 21.517C117.417 22.1136 117.727 22.5852 118.136 22.9318C118.55 23.2727 119.062 23.4432 119.67 23.4432ZM128.457 26V12.9091H134.039C135.653 12.9091 136.928 13.2159 137.866 13.8295C138.803 14.4432 139.272 15.3153 139.272 16.446C139.272 17.1562 139.008 17.7472 138.479 18.2188C137.951 18.6903 137.218 19.0085 136.281 19.1733C137.065 19.2301 137.732 19.4091 138.283 19.7102C138.84 20.0057 139.263 20.3892 139.553 20.8608C139.849 21.3324 139.996 21.8551 139.996 22.429C139.996 23.1733 139.798 23.8125 139.4 24.3466C139.008 24.8807 138.431 25.2898 137.67 25.5739C136.914 25.858 135.991 26 134.9 26H128.457ZM131.84 23.2812H134.9C135.406 23.2812 135.8 23.1619 136.085 22.9233C136.374 22.679 136.519 22.3466 136.519 21.9261C136.519 21.4602 136.374 21.0937 136.085 20.8267C135.8 20.5597 135.406 20.4261 134.9 20.4261H131.84V23.2812ZM131.84 18.2955H134.116C134.479 18.2955 134.789 18.2443 135.045 18.142C135.306 18.0341 135.505 17.8807 135.641 17.6818C135.783 17.483 135.854 17.2472 135.854 16.9744C135.854 16.571 135.692 16.2557 135.369 16.0284C135.045 15.8011 134.602 15.6875 134.039 15.6875H131.84V18.2955ZM148.2 26.2557C146.859 26.2557 145.705 25.9716 144.739 25.4034C143.779 24.8295 143.04 24.0341 142.523 23.017C142.012 22 141.756 20.8295 141.756 19.5057C141.756 18.1648 142.015 16.9886 142.532 15.9773C143.055 14.9602 143.796 14.1676 144.756 13.5994C145.717 13.0256 146.859 12.7386 148.183 12.7386C149.325 12.7386 150.325 12.946 151.183 13.3608C152.04 13.7756 152.719 14.358 153.219 15.108C153.719 15.858 153.995 16.7386 154.046 17.75H150.62C150.523 17.0966 150.268 16.571 149.853 16.1733C149.444 15.7699 148.907 15.5682 148.242 15.5682C147.68 15.5682 147.188 15.7216 146.768 16.0284C146.353 16.3295 146.029 16.7699 145.796 17.3494C145.563 17.929 145.447 18.6307 145.447 19.4545C145.447 20.2898 145.56 21 145.788 21.5852C146.021 22.1705 146.347 22.6165 146.768 22.9233C147.188 23.2301 147.68 23.3835 148.242 23.3835C148.657 23.3835 149.029 23.2983 149.359 23.1278C149.694 22.9574 149.969 22.7102 150.185 22.3864C150.407 22.0568 150.552 21.6619 150.62 21.2017H154.046C153.989 22.2017 153.717 23.0824 153.228 23.8438C152.745 24.5994 152.077 25.1903 151.225 25.6165C150.373 26.0426 149.364 26.2557 148.2 26.2557ZM156.371 26V12.9091H160.001V17.9886H161.024L164.587 12.9091H168.848L164.22 19.4034L168.899 26H164.587L161.357 21.3551H160.001V26H156.371ZM173.902 21.2102L178.615 12.9091H182.195V26H178.734V17.6733L174.038 26H170.433V12.9091H173.902V21.2102ZM191.071 26.2557C189.724 26.2557 188.565 25.983 187.594 25.4375C186.628 24.8864 185.884 24.108 185.361 23.1023C184.838 22.0909 184.577 20.8949 184.577 19.5142C184.577 18.1676 184.838 16.9858 185.361 15.9688C185.884 14.9517 186.619 14.1591 187.568 13.5909C188.523 13.0227 189.642 12.7386 190.926 12.7386C191.79 12.7386 192.594 12.8778 193.338 13.1562C194.088 13.429 194.741 13.8409 195.298 14.392C195.861 14.9432 196.298 15.6364 196.611 16.4716C196.923 17.3011 197.08 18.2727 197.08 19.3864V20.3835H186.026V18.1335H193.662C193.662 17.6108 193.548 17.1477 193.321 16.7443C193.094 16.3409 192.778 16.0256 192.375 15.7983C191.977 15.5653 191.514 15.4489 190.986 15.4489C190.435 15.4489 189.946 15.5767 189.52 15.8324C189.099 16.0824 188.77 16.4205 188.531 16.8466C188.293 17.267 188.17 17.7358 188.165 18.2528V20.392C188.165 21.0398 188.284 21.5994 188.523 22.071C188.767 22.5426 189.111 22.9062 189.554 23.1619C189.997 23.4176 190.523 23.5455 191.131 23.5455C191.534 23.5455 191.903 23.4886 192.239 23.375C192.574 23.2614 192.861 23.0909 193.099 22.8636C193.338 22.6364 193.52 22.358 193.645 22.0284L197.003 22.25C196.832 23.0568 196.483 23.7614 195.955 24.3636C195.432 24.9602 194.756 25.4261 193.926 25.7614C193.102 26.0909 192.151 26.2557 191.071 26.2557ZM54.2898 33.6193C53.8807 33.6193 53.517 33.6989 53.1989 33.858C52.8807 34.017 52.6307 34.2386 52.4489 34.5227C52.2727 34.8011 52.1847 35.1307 52.1847 35.5114H48.9205C48.9205 34.8011 49.0568 34.1534 49.3295 33.5682C49.6023 32.9773 49.983 32.4687 50.4716 32.0426C50.9602 31.6108 51.5284 31.2784 52.1761 31.0455C52.8295 30.8125 53.5341 30.696 54.2898 30.696C55.608 30.696 56.7159 30.9915 57.6136 31.5824C58.517 32.1676 59.1989 32.9602 59.6591 33.9602C60.125 34.9545 60.358 36.071 60.358 37.3097V37.625C60.358 38.8693 60.1278 39.9915 59.6676 40.9915C59.2074 41.9915 58.5256 42.7841 57.6222 43.3693C56.7244 43.9489 55.6136 44.2386 54.2898 44.2386C53.233 44.2386 52.3011 44.0312 51.4943 43.6165C50.6875 43.196 50.0568 42.6023 49.6023 41.8352C49.1477 41.0625 48.9205 40.1449 48.9205 39.0824H52.1847C52.1847 39.4858 52.2699 39.8551 52.4403 40.1903C52.6108 40.5256 52.8523 40.7926 53.1648 40.9915C53.483 41.1903 53.858 41.2926 54.2898 41.2983C54.9659 41.2926 55.4915 41.1023 55.8665 40.7273C56.2472 40.3523 56.5114 39.8835 56.6591 39.321C56.8125 38.7528 56.8892 38.1875 56.8892 37.625V37.3097C56.8892 36.6903 56.8097 36.0994 56.6506 35.5369C56.4972 34.9744 56.2301 34.5142 55.8494 34.1562C55.4744 33.7983 54.9545 33.6193 54.2898 33.6193ZM57.9375 36.3807V38.5284H53.3097V36.3807H57.9375ZM62.7379 44V30.9091H66.3686V35.9886H67.3913L70.9538 30.9091H75.2152L70.5874 37.4034L75.2663 44H70.9538L67.7237 39.3551H66.3686V44H62.7379ZM82.1761 44.2557C80.8352 44.2557 79.6818 43.9716 78.7159 43.4034C77.7557 42.8295 77.017 42.0341 76.5 41.017C75.9886 40 75.733 38.8295 75.733 37.5057C75.733 36.1648 75.9915 34.9886 76.5085 33.9773C77.0313 32.9602 77.7727 32.1676 78.733 31.5994C79.6932 31.0256 80.8352 30.7386 82.1591 30.7386C83.3011 30.7386 84.3011 30.946 85.1591 31.3608C86.017 31.7756 86.696 32.358 87.196 33.108C87.696 33.858 87.9716 34.7386 88.0227 35.75H84.5966C84.5 35.0966 84.2443 34.571 83.8295 34.1733C83.4205 33.7699 82.8835 33.5682 82.2188 33.5682C81.6562 33.5682 81.1648 33.7216 80.7443 34.0284C80.3295 34.3295 80.0057 34.7699 79.7727 35.3494C79.5398 35.929 79.4233 36.6307 79.4233 37.4545C79.4233 38.2898 79.5369 39 79.7642 39.5852C79.9972 40.1705 80.3239 40.6165 80.7443 40.9233C81.1648 41.2301 81.6562 41.3835 82.2188 41.3835C82.6335 41.3835 83.0057 41.2983 83.3352 41.1278C83.6705 40.9574 83.946 40.7102 84.1619 40.3864C84.3835 40.0568 84.5284 39.6619 84.5966 39.2017H88.0227C87.9659 40.2017 87.6932 41.0824 87.2045 41.8438C86.7216 42.5994 86.054 43.1903 85.2017 43.6165C84.3494 44.0426 83.3409 44.2557 82.1761 44.2557ZM90.3473 44V30.9091H93.978V35.9886H95.0007L98.5632 30.9091H102.825L98.1967 37.4034L102.876 44H98.5632L95.3331 39.3551H93.978V44H90.3473ZM106.862 48.9091C106.402 48.9091 105.97 48.8722 105.567 48.7983C105.169 48.7301 104.839 48.642 104.578 48.5341L105.396 45.8239C105.822 45.9545 106.206 46.0256 106.547 46.0369C106.893 46.0483 107.192 45.9688 107.442 45.7983C107.697 45.6278 107.905 45.3381 108.064 44.929L108.277 44.375L103.581 30.9091H107.399L110.109 40.5227H110.246L112.982 30.9091H116.825L111.737 45.4148C111.493 46.1193 111.161 46.733 110.74 47.2557C110.325 47.7841 109.8 48.1903 109.163 48.4744C108.527 48.7642 107.76 48.9091 106.862 48.9091ZM118.683 48.9091V30.9091H122.263V33.108H122.425C122.584 32.7557 122.814 32.3977 123.115 32.0341C123.422 31.6648 123.82 31.358 124.308 31.1136C124.803 30.8636 125.416 30.7386 126.149 30.7386C127.104 30.7386 127.984 30.9886 128.791 31.4886C129.598 31.983 130.243 32.7301 130.726 33.7301C131.209 34.7244 131.45 35.9716 131.45 37.4716C131.45 38.9318 131.214 40.1648 130.743 41.1705C130.277 42.1705 129.641 42.929 128.834 43.446C128.033 43.9574 127.135 44.2131 126.141 44.2131C125.436 44.2131 124.837 44.0966 124.342 43.8636C123.854 43.6307 123.453 43.3381 123.141 42.9858C122.828 42.6278 122.589 42.267 122.425 41.9034H122.314V48.9091H118.683ZM122.237 37.4545C122.237 38.233 122.345 38.9119 122.561 39.4915C122.777 40.071 123.089 40.5227 123.499 40.8466C123.908 41.1648 124.405 41.3239 124.99 41.3239C125.581 41.3239 126.081 41.1619 126.49 40.8381C126.899 40.5085 127.209 40.054 127.419 39.4744C127.635 38.8892 127.743 38.2159 127.743 37.4545C127.743 36.6989 127.638 36.0341 127.428 35.4602C127.217 34.8864 126.908 34.4375 126.499 34.1136C126.089 33.7898 125.587 33.6278 124.99 33.6278C124.399 33.6278 123.899 33.7841 123.49 34.0966C123.087 34.4091 122.777 34.8523 122.561 35.4261C122.345 36 122.237 36.6761 122.237 37.4545ZM139.786 44.2557C138.445 44.2557 137.291 43.9716 136.325 43.4034C135.365 42.8295 134.626 42.0341 134.109 41.017C133.598 40 133.342 38.8295 133.342 37.5057C133.342 36.1648 133.601 34.9886 134.118 33.9773C134.641 32.9602 135.382 32.1676 136.342 31.5994C137.303 31.0256 138.445 30.7386 139.768 30.7386C140.911 30.7386 141.911 30.946 142.768 31.3608C143.626 31.7756 144.305 32.358 144.805 33.108C145.305 33.858 145.581 34.7386 145.632 35.75H142.206C142.109 35.0966 141.854 34.571 141.439 34.1733C141.03 33.7699 140.493 33.5682 139.828 33.5682C139.266 33.5682 138.774 33.7216 138.354 34.0284C137.939 34.3295 137.615 34.7699 137.382 35.3494C137.149 35.929 137.033 36.6307 137.033 37.4545C137.033 38.2898 137.146 39 137.374 39.5852C137.607 40.1705 137.933 40.6165 138.354 40.9233C138.774 41.2301 139.266 41.3835 139.828 41.3835C140.243 41.3835 140.615 41.2983 140.945 41.1278C141.28 40.9574 141.555 40.7102 141.771 40.3864C141.993 40.0568 142.138 39.6619 142.206 39.2017H145.632C145.575 40.2017 145.303 41.0824 144.814 41.8438C144.331 42.5994 143.663 43.1903 142.811 43.6165C141.959 44.0426 140.95 44.2557 139.786 44.2557ZM151.425 39.2102L156.138 30.9091H159.718V44H156.258V35.6733L151.562 44H147.957V30.9091H151.425V39.2102ZM166.097 39.2102L170.81 30.9091H174.39V44H170.93V35.6733L166.234 44H162.629V30.9091H166.097V39.2102Z" fill="#5100C4"/>
<defs>
<filter id="filter0_d_3_197" x="0.594789" y="0.306969" width="49.5427" height="54.4211" filterUnits="userSpaceOnUse" color-interpolation-filters="sRGB">
<feFlood flood-opacity="0" result="BackgroundImageFix"/>
<feColorMatrix in="SourceAlpha" type="matrix" values="0 0 0 0 0 0 0 0 0 0 0 0 0 0 0 0 0 0 127 0" result="hardAlpha"/>
<feOffset dy="2"/>
<feGaussianBlur stdDeviation="2.85"/>
<feComposite in2="hardAlpha" operator="out"/>
<feColorMatrix type="matrix" values="0 0 0 0 0.15 0 0 0 0 0 0 0 0 0 1 0 0 0 0.3 0"/>
<feBlend mode="normal" in2="BackgroundImageFix" result="effect1_dropShadow_3_197"/>
<feBlend mode="normal" in="SourceGraphic" in2="effect1_dropShadow_3_197" result="shape"/>
</filter>
<filter id="filter1_b_3_197" x="2.82707" y="0.809617" width="46.2104" height="50.8185" filterUnits="userSpaceOnUse" color-interpolation-filters="sRGB">
<feFlood flood-opacity="0" result="BackgroundImageFix"/>
<feGaussianBlur in="BackgroundImageFix" stdDeviation="2.3"/>
<feComposite in2="SourceAlpha" operator="in" result="effect1_backgroundBlur_3_197"/>
<feBlend mode="normal" in="SourceGraphic" in2="effect1_backgroundBlur_3_197" result="shape"/>
</filter>
<linearGradient id="paint0_linear_3_197" x1="19.7785" y1="5.98282" x2="26.7334" y2="40.4855" gradientUnits="userSpaceOnUse">
<stop stop-color="#92A7FF"/>
<stop offset="1" stop-color="#7B00FF"/>
</linearGradient>
</defs>
</svg>
